<svg width="190" height="34" viewBox="0 0 170 34" fill="none" xmlns="http://www.w3.org/2000/svg">
    <path d="M18.6396 22.1152V26H1.50684V22.1152H18.6396ZM18.3906 4.60059L3.71484 26H0.211914V23.1445L15.0039 1.82812H18.3906V4.60059ZM16.6807 1.82812V5.72949H0.228516V1.82812H16.6807ZM24.085 1.82812H28.3018L34.5107 19.5752L40.7197 1.82812H44.9365L36.2041 26H32.8174L24.085 1.82812ZM21.8105 1.82812H26.0107L26.7744 19.127V26H21.8105V1.82812ZM43.0107 1.82812H47.2275V26H42.2471V19.127L43.0107 1.82812ZM60.9902 21.9492V13.9473C60.9902 13.3717 60.8962 12.8792 60.708 12.4697C60.5199 12.0492 60.2266 11.7227 59.8281 11.4902C59.4408 11.2578 58.9372 11.1416 58.3174 11.1416C57.7861 11.1416 57.3268 11.2357 56.9395 11.4238C56.5521 11.6009 56.2533 11.861 56.043 12.2041C55.8327 12.5361 55.7275 12.929 55.7275 13.3828H50.9463C50.9463 12.6191 51.1234 11.8942 51.4775 11.208C51.8317 10.5218 52.3464 9.91862 53.0215 9.39844C53.6966 8.86719 54.499 8.45215 55.4287 8.15332C56.3695 7.85449 57.4209 7.70508 58.583 7.70508C59.9775 7.70508 61.2171 7.9375 62.3018 8.40234C63.3864 8.86719 64.2386 9.56445 64.8584 10.4941C65.4893 11.4238 65.8047 12.5859 65.8047 13.9805V21.667C65.8047 22.652 65.8656 23.46 65.9873 24.0908C66.109 24.7106 66.2861 25.2529 66.5186 25.7178V26H61.6875C61.4551 25.513 61.278 24.9043 61.1562 24.1738C61.0456 23.4323 60.9902 22.6908 60.9902 21.9492ZM61.6211 15.0596L61.6543 17.7656H58.9814C58.3506 17.7656 57.8027 17.8376 57.3379 17.9814C56.873 18.1253 56.4912 18.3301 56.1924 18.5957C55.8936 18.8503 55.6722 19.1491 55.5283 19.4922C55.3955 19.8353 55.3291 20.2116 55.3291 20.6211C55.3291 21.0306 55.4232 21.4014 55.6113 21.7334C55.7995 22.0544 56.0706 22.3089 56.4248 22.4971C56.779 22.6742 57.194 22.7627 57.6699 22.7627C58.3893 22.7627 59.0146 22.6188 59.5459 22.3311C60.0771 22.0433 60.4867 21.6891 60.7744 21.2686C61.0732 20.848 61.2282 20.4495 61.2393 20.0732L62.501 22.0986C62.3239 22.5524 62.0804 23.0228 61.7705 23.5098C61.4717 23.9967 61.0898 24.4561 60.625 24.8877C60.1602 25.3083 59.6012 25.6569 58.9482 25.9336C58.2952 26.1992 57.5205 26.332 56.624 26.332C55.484 26.332 54.4492 26.1051 53.5195 25.6514C52.6009 25.1865 51.8704 24.5501 51.3281 23.7422C50.7969 22.9232 50.5312 21.9935 50.5312 20.9531C50.5312 20.0124 50.7083 19.1768 51.0625 18.4463C51.4167 17.7158 51.9368 17.1016 52.623 16.6035C53.3203 16.0944 54.1891 15.7126 55.2295 15.458C56.2699 15.1924 57.4762 15.0596 58.8486 15.0596H61.6211ZM74.1719 11.8721V26H69.3906V8.03711H73.873L74.1719 11.8721ZM73.4746 16.3877H72.1797C72.1797 15.0596 72.3512 13.8643 72.6943 12.8018C73.0374 11.7282 73.5189 10.8151 74.1387 10.0625C74.7585 9.29883 75.4945 8.71777 76.3467 8.31934C77.21 7.90983 78.1729 7.70508 79.2354 7.70508C80.0765 7.70508 80.8457 7.82682 81.543 8.07031C82.2402 8.3138 82.8379 8.70117 83.3359 9.23242C83.8451 9.76367 84.2324 10.4665 84.498 11.3408C84.7747 12.2152 84.9131 13.2832 84.9131 14.5449V26H80.0986V14.5283C80.0986 13.7314 79.988 13.1117 79.7666 12.6689C79.5452 12.2262 79.2188 11.9163 78.7871 11.7393C78.3665 11.5511 77.8464 11.457 77.2266 11.457C76.5846 11.457 76.0257 11.5843 75.5498 11.8389C75.085 12.0934 74.6976 12.4476 74.3877 12.9014C74.0889 13.3441 73.862 13.8643 73.707 14.4619C73.5521 15.0596 73.4746 15.7015 73.4746 16.3877ZM98.2441 21.9492V13.9473C98.2441 13.3717 98.1501 12.8792 97.9619 12.4697C97.7738 12.0492 97.4805 11.7227 97.082 11.4902C96.6947 11.2578 96.1911 11.1416 95.5713 11.1416C95.04 11.1416 94.5807 11.2357 94.1934 11.4238C93.806 11.6009 93.5072 11.861 93.2969 12.2041C93.0866 12.5361 92.9814 12.929 92.9814 13.3828H88.2002C88.2002 12.6191 88.3773 11.8942 88.7314 11.208C89.0856 10.5218 89.6003 9.91862 90.2754 9.39844C90.9505 8.86719 91.7529 8.45215 92.6826 8.15332C93.6234 7.85449 94.6748 7.70508 95.8369 7.70508C97.2314 7.70508 98.471 7.9375 99.5557 8.40234C100.64 8.86719 101.493 9.56445 102.112 10.4941C102.743 11.4238 103.059 12.5859 103.059 13.9805V21.667C103.059 22.652 103.119 23.46 103.241 24.0908C103.363 24.7106 103.54 25.2529 103.772 25.7178V26H98.9414C98.709 25.513 98.5319 24.9043 98.4102 24.1738C98.2995 23.4323 98.2441 22.6908 98.2441 21.9492ZM98.875 15.0596L98.9082 17.7656H96.2354C95.6045 17.7656 95.0566 17.8376 94.5918 17.9814C94.127 18.1253 93.7451 18.3301 93.4463 18.5957C93.1475 18.8503 92.9261 19.1491 92.7822 19.4922C92.6494 19.8353 92.583 20.2116 92.583 20.6211C92.583 21.0306 92.6771 21.4014 92.8652 21.7334C93.0534 22.0544 93.3245 22.3089 93.6787 22.4971C94.0329 22.6742 94.4479 22.7627 94.9238 22.7627C95.6432 22.7627 96.2686 22.6188 96.7998 22.3311C97.3311 22.0433 97.7406 21.6891 98.0283 21.2686C98.3271 20.848 98.4821 20.4495 98.4932 20.0732L99.7549 22.0986C99.5778 22.5524 99.3343 23.0228 99.0244 23.5098C98.7256 23.9967 98.3438 24.4561 97.8789 24.8877C97.4141 25.3083 96.8551 25.6569 96.2021 25.9336C95.5492 26.1992 94.7744 26.332 93.8779 26.332C92.738 26.332 91.7031 26.1051 90.7734 25.6514C89.8548 25.1865 89.1243 24.5501 88.582 23.7422C88.0508 22.9232 87.7852 21.9935 87.7852 20.9531C87.7852 20.0124 87.9622 19.1768 88.3164 18.4463C88.6706 17.7158 89.1908 17.1016 89.877 16.6035C90.5742 16.0944 91.443 15.7126 92.4834 15.458C93.5238 15.1924 94.7301 15.0596 96.1025 15.0596H98.875ZM118.116 8.03711H122.449V25.4023C122.449 27.0404 122.084 28.4294 121.354 29.5693C120.634 30.7204 119.627 31.5892 118.332 32.1758C117.037 32.7734 115.532 33.0723 113.816 33.0723C113.064 33.0723 112.267 32.9727 111.426 32.7734C110.596 32.5742 109.799 32.2643 109.035 31.8438C108.283 31.4232 107.652 30.8919 107.143 30.25L109.251 27.4277C109.804 28.0697 110.446 28.5677 111.177 28.9219C111.907 29.2871 112.715 29.4697 113.601 29.4697C114.464 29.4697 115.194 29.3092 115.792 28.9883C116.39 28.6784 116.849 28.2191 117.17 27.6104C117.491 27.0127 117.651 26.2878 117.651 25.4355V12.1875L118.116 8.03711ZM106.03 17.2344V16.8857C106.03 15.5133 106.196 14.2682 106.528 13.1504C106.871 12.0215 107.353 11.0531 107.973 10.2451C108.604 9.43717 109.367 8.81185 110.264 8.36914C111.16 7.92643 112.173 7.70508 113.302 7.70508C114.497 7.70508 115.499 7.92643 116.307 8.36914C117.115 8.81185 117.779 9.44271 118.299 10.2617C118.819 11.0697 119.223 12.027 119.511 13.1338C119.81 14.2295 120.042 15.4303 120.208 16.7363V17.5C120.042 18.7507 119.793 19.9128 119.461 20.9863C119.129 22.0599 118.692 23.0007 118.149 23.8086C117.607 24.6055 116.932 25.2253 116.124 25.668C115.327 26.1107 114.375 26.332 113.269 26.332C112.162 26.332 111.16 26.1051 110.264 25.6514C109.378 25.1976 108.62 24.5612 107.989 23.7422C107.358 22.9232 106.871 21.9603 106.528 20.8535C106.196 19.7467 106.03 18.5404 106.03 17.2344ZM110.812 16.8857V17.2344C110.812 17.9759 110.883 18.6676 111.027 19.3096C111.171 19.9515 111.393 20.5215 111.691 21.0195C112.001 21.5065 112.383 21.8883 112.837 22.165C113.302 22.4307 113.85 22.5635 114.48 22.5635C115.355 22.5635 116.069 22.3809 116.622 22.0156C117.175 21.6393 117.59 21.1247 117.867 20.4717C118.144 19.8187 118.304 19.0661 118.349 18.2139V16.0391C118.326 15.3418 118.232 14.7165 118.066 14.1631C117.9 13.5986 117.668 13.1172 117.369 12.7188C117.07 12.3203 116.683 12.0104 116.207 11.7891C115.731 11.5677 115.167 11.457 114.514 11.457C113.883 11.457 113.335 11.6009 112.87 11.8887C112.416 12.1654 112.035 12.5472 111.725 13.0342C111.426 13.5212 111.199 14.0967 111.044 14.7607C110.889 15.4137 110.812 16.1221 110.812 16.8857ZM131.215 8.03711V26H126.417V8.03711H131.215ZM126.118 3.35547C126.118 2.6582 126.362 2.08268 126.849 1.62891C127.336 1.17513 127.989 0.948242 128.808 0.948242C129.616 0.948242 130.263 1.17513 130.75 1.62891C131.248 2.08268 131.497 2.6582 131.497 3.35547C131.497 4.05273 131.248 4.62826 130.75 5.08203C130.263 5.53581 129.616 5.7627 128.808 5.7627C127.989 5.7627 127.336 5.53581 126.849 5.08203C126.362 4.62826 126.118 4.05273 126.118 3.35547ZM139.848 11.8721V26H135.066V8.03711H139.549L139.848 11.8721ZM139.15 16.3877H137.855C137.855 15.0596 138.027 13.8643 138.37 12.8018C138.713 11.7282 139.195 10.8151 139.814 10.0625C140.434 9.29883 141.17 8.71777 142.022 8.31934C142.886 7.90983 143.849 7.70508 144.911 7.70508C145.752 7.70508 146.521 7.82682 147.219 8.07031C147.916 8.3138 148.514 8.70117 149.012 9.23242C149.521 9.76367 149.908 10.4665 150.174 11.3408C150.451 12.2152 150.589 13.2832 150.589 14.5449V26H145.774V14.5283C145.774 13.7314 145.664 13.1117 145.442 12.6689C145.221 12.2262 144.895 11.9163 144.463 11.7393C144.042 11.5511 143.522 11.457 142.902 11.457C142.26 11.457 141.701 11.5843 141.226 11.8389C140.761 12.0934 140.373 12.4476 140.063 12.9014C139.765 13.3441 139.538 13.8643 139.383 14.4619C139.228 15.0596 139.15 15.7015 139.15 16.3877ZM165.597 8.03711H169.93V25.4023C169.93 27.0404 169.564 28.4294 168.834 29.5693C168.115 30.7204 167.107 31.5892 165.812 32.1758C164.518 32.7734 163.012 33.0723 161.297 33.0723C160.544 33.0723 159.747 32.9727 158.906 32.7734C158.076 32.5742 157.279 32.2643 156.516 31.8438C155.763 31.4232 155.132 30.8919 154.623 30.25L156.731 27.4277C157.285 28.0697 157.927 28.5677 158.657 28.9219C159.388 29.2871 160.196 29.4697 161.081 29.4697C161.944 29.4697 162.675 29.3092 163.272 28.9883C163.87 28.6784 164.329 28.2191 164.65 27.6104C164.971 27.0127 165.132 26.2878 165.132 25.4355V12.1875L165.597 8.03711ZM153.511 17.2344V16.8857C153.511 15.5133 153.677 14.2682 154.009 13.1504C154.352 12.0215 154.833 11.0531 155.453 10.2451C156.084 9.43717 156.848 8.81185 157.744 8.36914C158.641 7.92643 159.653 7.70508 160.782 7.70508C161.978 7.70508 162.979 7.92643 163.787 8.36914C164.595 8.81185 165.259 9.44271 165.779 10.2617C166.299 11.0697 166.703 12.027 166.991 13.1338C167.29 14.2295 167.522 15.4303 167.688 16.7363V17.5C167.522 18.7507 167.273 19.9128 166.941 20.9863C166.609 22.0599 166.172 23.0007 165.63 23.8086C165.088 24.6055 164.412 25.2253 163.604 25.668C162.808 26.1107 161.856 26.332 160.749 26.332C159.642 26.332 158.641 26.1051 157.744 25.6514C156.859 25.1976 156.101 24.5612 155.47 23.7422C154.839 22.9232 154.352 21.9603 154.009 20.8535C153.677 19.7467 153.511 18.5404 153.511 17.2344ZM158.292 16.8857V17.2344C158.292 17.9759 158.364 18.6676 158.508 19.3096C158.652 19.9515 158.873 20.5215 159.172 21.0195C159.482 21.5065 159.864 21.8883 160.317 22.165C160.782 22.4307 161.33 22.5635 161.961 22.5635C162.835 22.5635 163.549 22.3809 164.103 22.0156C164.656 21.6393 165.071 21.1247 165.348 20.4717C165.624 19.8187 165.785 19.0661 165.829 18.2139V16.0391C165.807 15.3418 165.713 14.7165 165.547 14.1631C165.381 13.5986 165.148 13.1172 164.85 12.7188C164.551 12.3203 164.163 12.0104 163.688 11.7891C163.212 11.5677 162.647 11.457 161.994 11.457C161.363 11.457 160.815 11.6009 160.351 11.8887C159.897 12.1654 159.515 12.5472 159.205 13.0342C158.906 13.5212 158.679 14.0967 158.524 14.7607C158.369 15.4137 158.292 16.1221 158.292 16.8857Z" fill="url(#paint0_linear_1_220)"/>
    <defs>
        <linearGradient id="paint0_linear_1_220" x1="-1.00001" y1="-13.0714" x2="80.3456" y2="114.056" gradientUnits="userSpaceOnUse">
            <stop stop-color="#001875"/>
            <stop offset="1" stop-color="#37B6FF"/>
        </linearGradient>
    </defs>
</svg>
